# xmcd CD database file
#
# Track frame offsets:
#	150
#	29082
#	49527
#	68117
#	85085
#	103940
#	124672
#	153945
#
# Disc length: 2269 seconds
#
# Revision: 4
# Processed by: cddbd v1.5.1PL2 Copyright (c) Steve Scherf et al.
# Submitted via: CDex 1.51
#
DISCID=6308db08
DTITLE=Astor Piazzola and Gerry Mulligan - Summit: reunion cumbre
DYEAR=1994
DGENRE=Jazz
TTITLE0=Hace Veinte Años
TTITLE1=Cierra Tus Ojos y Escucha
TTITLE2=Años de Soledad
TTITLE3=Deus Xango
TTITLE4=Veinte Años Después
TTITLE5=Aire De Buenos Aires
TTITLE6=Reminiscencia
TTITLE7=Reunión Cumbre
EXTD=Grabaci n realizada en el Mondial Studio de Mil n, Italia, en siete sesiones, entre el 24 de setiembre y el 4 de octubre de 1974.\nANS 10005-2 YEAR: 1994
EXTT0=
EXTT1=
EXTT2=
EXTT3=
EXTT4=
EXTT5=
EXTT6=
EXTT7=
PLAYORDER=
